<?xml version="1.0" encoding="UTF-8" standalone="no"?>
<!--suppress ALL, XmlUnusedNamespaceDeclaration -->
<svg
   width="512"
   height="512"
   viewBox="0 0 512 512"
   version="1.1"
   id="svg4"
   sodipodi:docname="youth-tube-music-icon.svg"
   inkscape:version="1.4.2 (ebf0e94, 2025-05-08)"
   xml:space="preserve"
   inkscape:export-batch-path="/home/schorsch/projects/android/AndroidStudioProjects/YouthTubeMusic"
   inkscape:export-batch-name="youth-tube-music-icon"
   xmlns:inkscape="http://www.inkscape.org/namespaces/inkscape"
   xmlns:sodipodi="http://sodipodi.sourceforge.net/DTD/sodipodi-0.dtd"
   xmlns:xlink="http://www.w3.org/1999/xlink"
   xmlns="http://www.w3.org/2000/svg"
   xmlns:svg="http://www.w3.org/2000/svg"><defs
     id="defs4"><linearGradient
       id="linearGradient3579"
       inkscape:collect="always"><stop
         id="stop3581"
         style="stop-color:#ffffff"
         offset="0" /><stop
         id="stop3583"
         style="stop-color:#ffffff;stop-opacity:0"
         offset="1" /></linearGradient><linearGradient
       id="linearGradient10466"
       y2="20.792999"
       xlink:href="#linearGradient3579"
       gradientUnits="userSpaceOnUse"
       y1="4.4250998"
       gradientTransform="matrix(0.56518132,0,0,1.662298,191.53391,98.645347)"
       x2="156.67999"
       x1="95.224998"
       inkscape:collect="always" /><linearGradient
       id="linearGradient3019"
       y2="333.89001"
       gradientUnits="userSpaceOnUse"
       x2="490.53"
       gradientTransform="matrix(2.0779,0,0,2.0779,-649.13264,-659.96227)"
       y1="489.14001"
       x1="382.34"><stop
         id="stop3015"
         style="stop-color:#000000;stop-opacity:.82639"
         offset="0" /><stop
         id="stop3017"
         style="stop-color:#000000"
         offset="1" /></linearGradient><style
       id="style1">
      .cls-1 {
        fill-rule: evenodd;
      }
    </style></defs><sodipodi:namedview
     id="namedview4"
     pagecolor="#ffffff"
     bordercolor="#000000"
     borderopacity="0.25"
     inkscape:showpageshadow="2"
     inkscape:pageopacity="0.0"
     inkscape:pagecheckerboard="0"
     inkscape:deskcolor="#d1d1d1"
     inkscape:zoom="0.64"
     inkscape:cx="321.875"
     inkscape:cy="200.78125"
     inkscape:window-width="1828"
     inkscape:window-height="1142"
     inkscape:window-x="0"
     inkscape:window-y="0"
     inkscape:window-maximized="1"
     inkscape:current-layer="svg4"><inkscape:page
       x="0"
       y="0"
       width="512"
       height="512"
       id="page10"
       margin="0"
       bleed="0"
       inkscape:label="foreground" /></sodipodi:namedview><!-- Background rounded square --><!-- Inner rounded panel (like a screen) --><!-- Play triangle (YouTube-like, but generic) --><!-- Music note stem --><!-- Music note head --><!-- Second note head (kids / playful feel) --><!-- Subtle bottom bar (like a player control bar) --><!-- Simple smile to emphasize "youth" / friendly --><path
     id="path5873"
     inkscape:connector-curvature="0"
     sodipodi:nodetypes="ccc"
     style="fill:url(#linearGradient10466);fill-rule:evenodd;stroke-width:0.96927"
     d="m 303.07519,-295.19362 c 0,0 58.18495,87.89386 16.91794,93.25891 9.49201,-11.14019 9.90471,-42.91519 -16.91794,-93.25891 z" /><g
     id="g11"
     transform="translate(-15.051193,1.4440882)"><path
       id="path3"
       style="fill:#000000;fill-opacity:1;fill-rule:evenodd;stroke:none;stroke-width:5.92407;stroke-linecap:round;stroke-linejoin:round;stroke-opacity:1"
       d="m 179.32346,188.6923 c 3.07727,4.56681 4.65868,10.09684 8.6245,14.04069 4.54191,6.01415 10.34711,10.99533 14.84775,17.08124 3.25726,4.25234 6.82765,8.77195 7.75154,14.12188 2.48935,6.86209 1.40637,14.56659 -1.25216,21.28535 -2.99872,3.62345 -5.04739,-1.06478 -4.21,-3.96779 0.12832,-4.00537 0.071,-8.00012 -1.45634,-11.78303 -1.35411,-5.67335 -3.83135,-11.042 -7.97962,-15.20428 -3.60463,-3.17613 -7.69622,-10.17554 -13.19293,-7.76412 -3.63,2.29934 -2.04968,6.94554 -2.44098,10.52699 -0.22007,22.03109 -0.23889,44.0708 -0.59358,66.09759 -0.2697,9.25094 -8.22451,15.45882 -15.66989,19.43194 -6.63307,4.01356 -14.57423,6.26234 -22.27255,4.47565 -7.15876,-0.73704 -14.56341,-5.98946 -14.7119,-13.7633 -0.47551,-9.01352 6.00158,-17.40822 13.97375,-20.96934 7.82616,-4.48533 17.71974,-5.45908 26.14562,-2.23765 4.11744,1.30761 5.26328,-2.53392 5.77797,-6.22885 0.48112,-28.04296 0.86727,-56.0859 0.97009,-84.13311 0.0792,-2.80344 4.6214,-3.4885 5.68817,-1.00819 z" /><path
       d="M 415.3597,254.56084 296.44556,187.17617 v 134.76934 z"
       fill="#ffffff"
       id="path1414"
       style="fill:#000000;fill-opacity:1;stroke-width:0.0786705"
       clip-path="none" /></g><rect
     style="font-variation-settings:'wght' 700;fill:none;fill-opacity:1;stroke:#d2000e;stroke-width:51.835;stroke-linecap:round;stroke-linejoin:round;stroke-dasharray:none;stroke-opacity:1"
     id="rect11"
     width="442.1875"
     height="279.6875"
     x="34.90625"
     y="116.15625"
     rx="60"
     ry="60" /></svg>
